<svg xmlns="http://www.w3.org/2000/svg" viewBox="0 0 200 240" role="img" aria-label="Kelowna Now Best of Kelowna — Bronze 2025">
  <defs>
    <linearGradient id="bronze" x1="0" y1="0" x2="1" y2="1">
      <stop offset="0%" stop-color="#E0A878"/>
      <stop offset="40%" stop-color="#CD7F32"/>
      <stop offset="60%" stop-color="#A86A2A"/>
      <stop offset="100%" stop-color="#8B5A20"/>
    </linearGradient>
    <linearGradient id="bronzeRibbon" x1="0" y1="0" x2="0" y2="1">
      <stop offset="0%" stop-color="#C97F2A"/>
      <stop offset="100%" stop-color="#8B5A20"/>
    </linearGradient>
    <radialGradient id="bronzeShine" cx="50%" cy="35%" r="50%">
      <stop offset="0%" stop-color="#fff" stop-opacity="0.5"/>
      <stop offset="60%" stop-color="#fff" stop-opacity="0"/>
    </radialGradient>
  </defs>
  <polygon points="60,135 50,225 80,205 100,225 100,160" fill="url(#bronzeRibbon)" stroke="#5C3A12" stroke-width="0.8"/>
  <polygon points="140,135 150,225 120,205 100,225 100,160" fill="url(#bronzeRibbon)" stroke="#5C3A12" stroke-width="0.8"/>
  <circle cx="100" cy="100" r="78" fill="url(#bronze)" stroke="#5C3A12" stroke-width="2"/>
  <ellipse cx="50" cy="60" rx="6" ry="3" fill="#7A4F1C" transform="rotate(-30 50 60)"/>
  <ellipse cx="46" cy="75" rx="6" ry="3" fill="#7A4F1C" transform="rotate(-20 46 75)"/>
  <ellipse cx="44" cy="90" rx="6" ry="3" fill="#7A4F1C" transform="rotate(-10 44 90)"/>
  <ellipse cx="46" cy="105" rx="6" ry="3" fill="#7A4F1C" transform="rotate(0 46 105)"/>
  <ellipse cx="52" cy="120" rx="6" ry="3" fill="#7A4F1C" transform="rotate(15 52 120)"/>
  <ellipse cx="150" cy="60" rx="6" ry="3" fill="#7A4F1C" transform="rotate(30 150 60)"/>
  <ellipse cx="154" cy="75" rx="6" ry="3" fill="#7A4F1C" transform="rotate(20 154 75)"/>
  <ellipse cx="156" cy="90" rx="6" ry="3" fill="#7A4F1C" transform="rotate(10 156 90)"/>
  <ellipse cx="154" cy="105" rx="6" ry="3" fill="#7A4F1C" transform="rotate(0 154 105)"/>
  <ellipse cx="148" cy="120" rx="6" ry="3" fill="#7A4F1C" transform="rotate(-15 148 120)"/>
  <circle cx="100" cy="100" r="58" fill="#E8C798" stroke="#7A4F1C" stroke-width="1.2"/>
  <circle cx="100" cy="100" r="58" fill="url(#bronzeShine)"/>
  <polygon points="100,55 105,70 121,70 108,80 113,95 100,86 87,95 92,80 79,70 95,70" fill="#7A4F1C"/>
  <text x="100" y="115" text-anchor="middle" font-family="Inter, Arial, sans-serif" font-weight="800" font-size="11" fill="#5C3A12" letter-spacing="1">BEST OF</text>
  <text x="100" y="129" text-anchor="middle" font-family="Inter, Arial, sans-serif" font-weight="900" font-size="14" fill="#3C260C" letter-spacing="0.5">KELOWNA</text>
  <text x="100" y="148" text-anchor="middle" font-family="Inter, Arial, sans-serif" font-weight="800" font-size="9" fill="#5C3A12" letter-spacing="2.5">BRONZE · 2025</text>
</svg>
